<svg width="25" height="24" viewBox="0 0 25 24" fill="none" xmlns="http://www.w3.org/2000/svg">
<path d="M12.1797 0C5.55233 0 0.179688 5.37264 0.179688 12C0.179688 17.6275 4.05425 22.3498 9.28097 23.6467V15.6672H6.80657V12H9.28097V10.4198C9.28097 6.33552 11.1294 4.4424 15.1394 4.4424C15.8997 4.4424 17.2115 4.59168 17.7482 4.74048V8.06448C17.465 8.03472 16.973 8.01984 16.3619 8.01984C14.3944 8.01984 13.6341 8.76528 13.6341 10.703V12H17.5538L16.8803 15.6672H13.6341V23.9122C19.576 23.1946 24.1802 18.1354 24.1802 12C24.1797 5.37264 18.807 0 12.1797 0Z" fill="#FAFAFA"/>
</svg>
