<svg width="184" height="50" viewBox="0 0 184 50" fill="none" xmlns="http://www.w3.org/2000/svg">
<path d="M13.1949 48.593C12.1468 48.593 11.2678 48.3082 10.5579 47.7387C8.39419 45.9799 6.92355 42.8727 6.14597 38.4171C5.70647 35.938 5.35994 33.5008 5.10639 31.1055C4.93735 29.4137 4.85283 26.9514 4.85283 23.7186C4.85283 22.2948 4.87818 20.8878 4.92889 19.4975C4.32036 19.7152 3.82169 19.8241 3.4329 19.8241C3.11173 19.8241 2.80746 19.7739 2.52009 19.6734C1.37063 19.2881 0.795898 18.5176 0.795898 17.3618C0.795898 16.809 1.01565 16.2395 1.45515 15.6533C2.33415 14.4807 3.6611 13.5176 5.43601 12.7638C5.53743 11.8425 5.64731 10.938 5.76564 10.0503C6.4756 4.94137 7.60816 1.81742 9.16332 0.678392C9.78876 0.226131 10.4058 0 11.0143 0C11.775 0 12.4173 0.318258 12.9413 0.954774C13.4823 1.57454 13.7527 2.37018 13.7527 3.34171C13.7527 5 13.6597 7.52931 13.4738 10.9296C14.4035 10.8459 15.2994 10.804 16.1615 10.804C18.359 10.804 20.3706 11.0804 22.1962 11.6332L22.4751 9.92462C23.0667 6.20603 24.1993 3.60134 25.8728 2.11055C26.4475 1.59129 27.0645 1.33166 27.7238 1.33166C28.5859 1.33166 29.0169 2.08543 29.0169 3.59296C29.0169 5.68677 28.831 8.24121 28.4591 11.2563C28.1717 13.5176 28.0111 16.072 27.9773 18.9196C27.9435 21.7504 27.9266 23.727 27.9266 24.8492C27.9266 27.7806 27.9858 30.335 28.1041 32.5126C28.2562 35.4271 28.3323 37.6633 28.3323 39.2211C28.3323 40.0419 28.121 40.7119 27.6984 41.2312C27.2927 41.7504 26.8025 42.01 26.2278 42.01C25.7545 42.01 25.2727 41.8174 24.7825 41.4322C23.5823 40.4941 22.7118 37.8894 22.1708 33.6181C21.6975 29.9832 21.4609 26.206 21.4609 22.2864C21.4609 19.9581 21.5116 18.0821 21.613 16.6583C18.1477 16.8593 15.367 17.1273 13.271 17.4623C13.2541 18.4506 13.2456 19.4807 13.2456 20.5528C13.2456 21.8928 13.2625 24.263 13.2963 27.6633C13.347 31.0636 13.5499 34.1206 13.9049 36.8342C14.3951 40.4858 14.6402 43.5176 14.6402 45.9296C14.6402 47.7052 14.1584 48.593 13.1949 48.593Z" fill="#FAFAFA"/>
<path d="M37.8661 40.1256C36.1081 40.1256 34.722 39.8157 33.7077 39.196C32.6935 38.5762 31.9666 37.7387 31.5271 36.6834C31.1045 35.6281 30.8932 34.4556 30.8932 33.1658C30.8932 31.876 31.1468 30.67 31.6539 29.5477C32.161 28.4255 32.7696 27.4372 33.4795 26.5829C34.2064 25.7286 34.9079 25.0502 35.5841 24.5477C34.891 24.5477 34.1895 24.397 33.4795 24.0955C32.7696 23.7772 32.1695 23.2915 31.6793 22.6382C31.1891 21.9682 30.944 21.0888 30.944 20C30.944 19.0285 31.2144 18.0905 31.7553 17.1859C32.8372 15.3601 34.3923 13.9112 36.4208 12.8392C37.7562 12.1189 38.9057 11.7588 39.8692 11.7588C40.4777 11.7588 40.9595 11.9012 41.3145 12.1859C41.7709 12.5377 41.9991 12.9648 41.9991 13.4673C41.9991 13.5511 41.9653 13.7688 41.8977 14.1206C41.847 14.4724 41.4328 14.8744 40.6552 15.3266C39.8777 15.7789 39.0832 16.3903 38.2718 17.1608C37.4604 17.9313 36.8603 18.66 36.4715 19.3467C36.3025 19.665 36.218 19.9246 36.218 20.1256C36.218 20.5611 36.4969 20.7789 37.0547 20.7789C37.6463 20.7789 38.6437 20.5025 40.0467 19.9497C40.4017 19.8325 40.7313 19.7739 41.0356 19.7739C42.0836 19.7739 42.709 20.3183 42.9119 21.407C42.9457 21.5745 42.9626 21.7588 42.9626 21.9598C42.9626 23.0653 42.5062 23.9782 41.5934 24.6985C41.1877 25 40.5454 25.7286 39.6664 26.8844C38.7873 28.0402 38.0774 29.263 37.5365 30.5528C37.2153 31.4405 37.0547 32.1357 37.0547 32.6382C37.0547 33.3752 37.4519 33.7437 38.2464 33.7437C38.8212 33.7437 39.6917 33.5678 40.8581 33.2161C42.0244 32.8476 42.8781 32.6633 43.419 32.6633C44.4501 32.6633 44.9657 33.1407 44.9657 34.0955C44.9657 34.8995 44.6276 35.7621 43.9515 36.6834C43.1739 37.7554 42.2526 38.6013 41.1877 39.2211C40.1397 39.8241 39.0325 40.1256 37.8661 40.1256Z" fill="#FAFAFA"/>
<path d="M55.1841 50C53.8318 50 52.6401 49.7152 51.6089 49.1457C50.5947 48.5762 49.8002 47.8141 49.2255 46.8593C48.6508 45.9045 48.3634 44.866 48.3634 43.7437C48.3634 41.7337 48.8452 39.8744 49.8087 38.1658C51.6512 34.8827 54.7446 32.1943 59.0889 30.1005C59.0889 28.1407 59.0213 26.1977 58.8861 24.2714C58.4973 25.5779 57.9394 26.7923 57.2126 27.9146C56.5026 29.0368 55.649 29.9497 54.6516 30.6533C53.6712 31.3568 52.5894 31.7085 51.4061 31.7085C49.8678 31.7085 48.4648 31.0301 47.197 29.6734C45.9461 28.3166 45.0671 26.3903 44.56 23.8945C44.3403 22.8057 44.2304 21.608 44.2304 20.3015C44.2304 18.6767 44.4248 16.9012 44.8136 14.9749C45.1179 13.4841 45.6757 12.4623 46.4871 11.9095C46.9266 11.608 47.3661 11.4573 47.8056 11.4573C48.8029 11.4573 49.5044 11.9598 49.9101 12.9648C50.2313 13.8023 50.3919 14.6901 50.3919 15.6281C50.3919 16.1642 50.3665 16.8593 50.3158 17.7136C50.2144 19.4221 50.1637 20.6868 50.1637 21.5075C50.1637 22.2278 50.1975 22.9816 50.2651 23.7688C50.3327 24.5561 50.5102 25.2513 50.7976 25.8543C51.0849 26.4405 51.5244 26.7337 52.1161 26.7337C53.2486 26.7337 54.2628 25.8375 55.1588 24.0452C56.0716 22.2529 56.7562 19.9414 57.2126 17.1106C57.4323 15.7705 57.6859 14.598 57.9732 13.593C58.2606 12.5712 58.6409 11.7755 59.1143 11.206C59.6045 10.6198 60.2637 10.3266 61.092 10.3266C62.9683 10.3266 64.2953 12.2027 65.0729 15.9548C65.3095 17.0938 65.5293 18.5511 65.7321 20.3266C66.0195 22.8894 66.1632 25.4858 66.1632 28.1156V29.4472C67.7352 29.7487 68.8171 30.3601 69.4087 31.2814C69.6454 31.6667 69.7637 32.0184 69.7637 32.3367C69.7637 32.6884 69.6285 33.0151 69.358 33.3166C69.1044 33.6181 68.7664 33.7688 68.3438 33.7688C68.0226 33.7688 67.6592 33.6683 67.2535 33.4673C66.8478 33.2663 66.4252 33.1072 65.9857 32.9899C65.6138 37.7638 64.6672 41.6415 63.1458 44.6231C61.3202 48.2077 58.6663 50 55.1841 50ZM55.0573 45.8543C57.2717 45.8543 58.5818 42.0352 58.9875 34.397C57.4661 35.3853 56.1899 36.6499 55.1588 38.191C54.0769 39.8157 53.536 41.5494 53.536 43.392C53.536 44.2295 53.6966 44.8492 54.0177 45.2513C54.3558 45.6533 54.7024 45.8543 55.0573 45.8543Z" fill="#FAFAFA"/>
<path fill-rule="evenodd" clip-rule="evenodd" d="M92.4295 15.544V9.45913H107.888L111.387 12.9261V22.4424L108.424 25.3787L110.744 31.6758H112.815V37.7606H105.603L101.997 25.874H101.319V31.6758H103.033V37.7606H92.4295V31.6758H94.6787V15.544H92.4295ZM101.319 20.5321V15.5793H104.711V20.5321H101.319ZM66.7786 10.728L73.4142 4.1526H183.061V20.8505H178.892L177.574 22.6809L179.264 26.3693H183.203V43.1211L167.592 43.0672H73.4142L67.18 36.8895C67.2585 36.3859 67.3292 35.8721 67.3922 35.348C67.6964 35.4321 68.0144 35.4826 68.3419 35.4826C69.2007 35.4826 70.0021 35.1536 70.5854 34.4722C71.0693 33.9254 71.3847 33.2366 71.3847 32.4424C71.3847 31.7308 71.106 31.0611 70.776 30.5238C70.0859 29.4492 69.0303 28.7494 67.7841 28.3198V28.2213C67.7841 24.2619 67.5346 20.2258 66.7786 16.3245V10.728ZM115.041 15.544V9.45913H132.677V18.551H126.893V15.544H123.93V20.3906H129.357V26.5108H123.93V31.6758H126.893V28.6688H132.677V37.7606H115.041V31.6758H117.29V15.544H115.041ZM135.734 31.6758H137.983V15.544H135.734V9.45913H153.37V18.551H147.587V15.544H144.624V20.3906H150.05V26.5108H144.624V31.6758H147.587V28.6688H153.37V37.7606H135.734V31.6758ZM156.428 31.6758H158.641V15.544H156.428V9.45913H166.638V15.544H165.317V20.6736L169.03 15.5086H167.816V9.45913H177.705V15.544H176.135L171.422 22.0887L175.813 31.6758H177.848V37.796L167.602 37.7606V31.7112H168.887L166.638 26.6523L165.317 28.4565V31.6758H166.531V37.7606H156.428V31.6758ZM89.3416 20.9566V34.2937L85.8429 37.7606H75.6324L72.1337 34.2937V12.9261L75.6324 9.45913H85.8429L89.3416 12.9261V18.6571H82.6655V15.544H78.8098V31.6758H82.6655V27.0414H80.4164V20.9566H89.3416Z" fill="#FAFAFA"/>
</svg>
