<svg width="25" height="24" viewBox="0 0 25 24" fill="none" xmlns="http://www.w3.org/2000/svg">
<g clip-path="url(#clip0_14819_24465)">
<path d="M12.1797 2.16094C15.3859 2.16094 15.7656 2.175 17.0266 2.23125C18.1984 2.28281 18.8313 2.47969 19.2531 2.64375C19.8109 2.85938 20.2141 3.12188 20.6313 3.53906C21.0531 3.96094 21.3109 4.35938 21.5266 4.91719C21.6906 5.33906 21.8875 5.97656 21.9391 7.14375C21.9953 8.40937 22.0094 8.78906 22.0094 11.9906C22.0094 15.1969 21.9953 15.5766 21.9391 16.8375C21.8875 18.0094 21.6906 18.6422 21.5266 19.0641C21.3109 19.6219 21.0484 20.025 20.6313 20.4422C20.2094 20.8641 19.8109 21.1219 19.2531 21.3375C18.8313 21.5016 18.1938 21.6984 17.0266 21.75C15.7609 21.8062 15.3813 21.8203 12.1797 21.8203C8.97344 21.8203 8.59375 21.8062 7.33281 21.75C6.16094 21.6984 5.52813 21.5016 5.10625 21.3375C4.54844 21.1219 4.14531 20.8594 3.72813 20.4422C3.30625 20.0203 3.04844 19.6219 2.83281 19.0641C2.66875 18.6422 2.47188 18.0047 2.42031 16.8375C2.36406 15.5719 2.35 15.1922 2.35 11.9906C2.35 8.78438 2.36406 8.40469 2.42031 7.14375C2.47188 5.97187 2.66875 5.33906 2.83281 4.91719C3.04844 4.35938 3.31094 3.95625 3.72813 3.53906C4.15 3.11719 4.54844 2.85938 5.10625 2.64375C5.52813 2.47969 6.16563 2.28281 7.33281 2.23125C8.59375 2.175 8.97344 2.16094 12.1797 2.16094ZM12.1797 0C8.92188 0 8.51406 0.0140625 7.23438 0.0703125C5.95938 0.126563 5.08281 0.332812 4.32344 0.628125C3.53125 0.9375 2.86094 1.34531 2.19531 2.01562C1.525 2.68125 1.11719 3.35156 0.807813 4.13906C0.5125 4.90313 0.30625 5.775 0.25 7.05C0.19375 8.33437 0.179688 8.74219 0.179688 12C0.179688 15.2578 0.19375 15.6656 0.25 16.9453C0.30625 18.2203 0.5125 19.0969 0.807813 19.8563C1.11719 20.6484 1.525 21.3188 2.19531 21.9844C2.86094 22.65 3.53125 23.0625 4.31875 23.3672C5.08281 23.6625 5.95469 23.8687 7.22969 23.925C8.50938 23.9812 8.91719 23.9953 12.175 23.9953C15.4328 23.9953 15.8406 23.9812 17.1203 23.925C18.3953 23.8687 19.2719 23.6625 20.0313 23.3672C20.8188 23.0625 21.4891 22.65 22.1547 21.9844C22.8203 21.3188 23.2328 20.6484 23.5375 19.8609C23.8328 19.0969 24.0391 18.225 24.0953 16.95C24.1516 15.6703 24.1656 15.2625 24.1656 12.0047C24.1656 8.74688 24.1516 8.33906 24.0953 7.05938C24.0391 5.78438 23.8328 4.90781 23.5375 4.14844C23.2422 3.35156 22.8344 2.68125 22.1641 2.01562C21.4984 1.35 20.8281 0.9375 20.0406 0.632812C19.2766 0.3375 18.4047 0.13125 17.1297 0.075C15.8453 0.0140625 15.4375 0 12.1797 0Z" fill="#FAFAFA"/>
<path d="M12.1797 5.83594C8.77656 5.83594 6.01562 8.59688 6.01562 12C6.01562 15.4031 8.77656 18.1641 12.1797 18.1641C15.5828 18.1641 18.3438 15.4031 18.3438 12C18.3438 8.59688 15.5828 5.83594 12.1797 5.83594ZM12.1797 15.9984C9.97188 15.9984 8.18125 14.2078 8.18125 12C8.18125 9.79219 9.97188 8.00156 12.1797 8.00156C14.3875 8.00156 16.1781 9.79219 16.1781 12C16.1781 14.2078 14.3875 15.9984 12.1797 15.9984Z" fill="#FAFAFA"/>
<path d="M20.0266 5.59141C20.0266 6.38828 19.3797 7.03047 18.5875 7.03047C17.7906 7.03047 17.1484 6.3836 17.1484 5.59141C17.1484 4.79453 17.7953 4.15234 18.5875 4.15234C19.3797 4.15234 20.0266 4.79922 20.0266 5.59141Z" fill="#FAFAFA"/>
</g>
<defs>
<clipPath id="clip0_14819_24465">
<rect width="24" height="24" fill="white" transform="translate(0.179688)"/>
</clipPath>
</defs>
</svg>
