<svg width="150" height="150" viewBox="0 0 150 150" fill="none" xmlns="http://www.w3.org/2000/svg">
<path d="M5.17241 0H0V5.17241H5.17241V0Z" fill="#282C38"/>
<path d="M10.3448 0H5.17241V5.17241H10.3448V0Z" fill="#282C38"/>
<path d="M15.5172 0H10.3448V5.17241H15.5172V0Z" fill="#282C38"/>
<path d="M20.6897 0H15.5172V5.17241H20.6897V0Z" fill="#282C38"/>
<path d="M25.8621 0H20.6897V5.17241H25.8621V0Z" fill="#282C38"/>
<path d="M31.0345 0H25.8621V5.17241H31.0345V0Z" fill="#282C38"/>
<path d="M36.2069 0H31.0345V5.17241H36.2069V0Z" fill="#282C38"/>
<path d="M46.5517 0H41.3793V5.17241H46.5517V0Z" fill="#282C38"/>
<path d="M51.7241 0H46.5517V5.17241H51.7241V0Z" fill="#282C38"/>
<path d="M62.069 0H56.8965V5.17241H62.069V0Z" fill="#282C38"/>
<path d="M72.4138 0H67.2414V5.17241H72.4138V0Z" fill="#282C38"/>
<path d="M77.5862 0H72.4138V5.17241H77.5862V0Z" fill="#282C38"/>
<path d="M82.7586 0H77.5862V5.17241H82.7586V0Z" fill="#282C38"/>
<path d="M87.931 0H82.7586V5.17241H87.931V0Z" fill="#282C38"/>
<path d="M98.2759 0H93.1035V5.17241H98.2759V0Z" fill="#282C38"/>
<path d="M108.621 0H103.448V5.17241H108.621V0Z" fill="#282C38"/>
<path d="M118.966 0H113.793V5.17241H118.966V0Z" fill="#282C38"/>
<path d="M124.138 0H118.966V5.17241H124.138V0Z" fill="#282C38"/>
<path d="M129.31 0H124.138V5.17241H129.31V0Z" fill="#282C38"/>
<path d="M134.483 0H129.31V5.17241H134.483V0Z" fill="#282C38"/>
<path d="M139.655 0H134.483V5.17241H139.655V0Z" fill="#282C38"/>
<path d="M144.828 0H139.655V5.17241H144.828V0Z" fill="#282C38"/>
<path d="M150 0H144.828V5.17241H150V0Z" fill="#282C38"/>
<path d="M5.17241 5.17241H0V10.3448H5.17241V5.17241Z" fill="#282C38"/>
<path d="M36.2069 5.17241H31.0345V10.3448H36.2069V5.17241Z" fill="#282C38"/>
<path d="M56.8965 5.17241H51.7241V10.3448H56.8965V5.17241Z" fill="#282C38"/>
<path d="M67.2414 5.17241H62.069V10.3448H67.2414V5.17241Z" fill="#282C38"/>
<path d="M72.4138 5.17241H67.2414V10.3448H72.4138V5.17241Z" fill="#282C38"/>
<path d="M77.5862 5.17241H72.4138V10.3448H77.5862V5.17241Z" fill="#282C38"/>
<path d="M87.931 5.17241H82.7586V10.3448H87.931V5.17241Z" fill="#282C38"/>
<path d="M118.966 5.17241H113.793V10.3448H118.966V5.17241Z" fill="#282C38"/>
<path d="M150 5.17241H144.828V10.3448H150V5.17241Z" fill="#282C38"/>
<path d="M5.17241 10.3448H0V15.5172H5.17241V10.3448Z" fill="#282C38"/>
<path d="M15.5172 10.3448H10.3448V15.5172H15.5172V10.3448Z" fill="#282C38"/>
<path d="M20.6897 10.3448H15.5172V15.5172H20.6897V10.3448Z" fill="#282C38"/>
<path d="M25.8621 10.3448H20.6897V15.5172H25.8621V10.3448Z" fill="#282C38"/>
<path d="M36.2069 10.3448H31.0345V15.5172H36.2069V10.3448Z" fill="#282C38"/>
<path d="M56.8965 10.3448H51.7241V15.5172H56.8965V10.3448Z" fill="#282C38"/>
<path d="M62.069 10.3448H56.8965V15.5172H62.069V10.3448Z" fill="#282C38"/>
<path d="M98.2759 10.3448H93.1035V15.5172H98.2759V10.3448Z" fill="#282C38"/>
<path d="M108.621 10.3448H103.448V15.5172H108.621V10.3448Z" fill="#282C38"/>
<path d="M118.966 10.3448H113.793V15.5172H118.966V10.3448Z" fill="#282C38"/>
<path d="M129.31 10.3448H124.138V15.5172H129.31V10.3448Z" fill="#282C38"/>
<path d="M134.483 10.3448H129.31V15.5172H134.483V10.3448Z" fill="#282C38"/>
<path d="M139.655 10.3448H134.483V15.5172H139.655V10.3448Z" fill="#282C38"/>
<path d="M150 10.3448H144.828V15.5172H150V10.3448Z" fill="#282C38"/>
<path d="M5.17241 15.5172H0V20.6897H5.17241V15.5172Z" fill="#282C38"/>
<path d="M15.5172 15.5172H10.3448V20.6897H15.5172V15.5172Z" fill="#282C38"/>
<path d="M20.6897 15.5172H15.5172V20.6897H20.6897V15.5172Z" fill="#282C38"/>
<path d="M25.8621 15.5172H20.6897V20.6897H25.8621V15.5172Z" fill="#282C38"/>
<path d="M36.2069 15.5172H31.0345V20.6897H36.2069V15.5172Z" fill="#282C38"/>
<path d="M46.5517 15.5172H41.3793V20.6897H46.5517V15.5172Z" fill="#282C38"/>
<path d="M51.7241 15.5172H46.5517V20.6897H51.7241V15.5172Z" fill="#282C38"/>
<path d="M56.8965 15.5172H51.7241V20.6897H56.8965V15.5172Z" fill="#282C38"/>
<path d="M82.7586 15.5172H77.5862V20.6897H82.7586V15.5172Z" fill="#282C38"/>
<path d="M87.931 15.5172H82.7586V20.6897H87.931V15.5172Z" fill="#282C38"/>
<path d="M98.2759 15.5172H93.1035V20.6897H98.2759V15.5172Z" fill="#282C38"/>
<path d="M118.966 15.5172H113.793V20.6897H118.966V15.5172Z" fill="#282C38"/>
<path d="M129.31 15.5172H124.138V20.6897H129.31V15.5172Z" fill="#282C38"/>
<path d="M134.483 15.5172H129.31V20.6897H134.483V15.5172Z" fill="#282C38"/>
<path d="M139.655 15.5172H134.483V20.6897H139.655V15.5172Z" fill="#282C38"/>
<path d="M150 15.5172H144.828V20.6897H150V15.5172Z" fill="#282C38"/>
<path d="M5.17241 20.6897H0V25.8621H5.17241V20.6897Z" fill="#282C38"/>
<path d="M15.5172 20.6897H10.3448V25.8621H15.5172V20.6897Z" fill="#282C38"/>
<path d="M20.6897 20.6897H15.5172V25.8621H20.6897V20.6897Z" fill="#282C38"/>
<path d="M25.8621 20.6897H20.6897V25.8621H25.8621V20.6897Z" fill="#282C38"/>
<path d="M36.2069 20.6897H31.0345V25.8621H36.2069V20.6897Z" fill="#282C38"/>
<path d="M56.8965 20.6897H51.7241V25.8621H56.8965V20.6897Z" fill="#282C38"/>
<path d="M67.2414 20.6897H62.069V25.8621H67.2414V20.6897Z" fill="#282C38"/>
<path d="M72.4138 20.6897H67.2414V25.8621H72.4138V20.6897Z" fill="#282C38"/>
<path d="M82.7586 20.6897H77.5862V25.8621H82.7586V20.6897Z" fill="#282C38"/>
<path d="M87.931 20.6897H82.7586V25.8621H87.931V20.6897Z" fill="#282C38"/>
<path d="M118.966 20.6897H113.793V25.8621H118.966V20.6897Z" fill="#282C38"/>
<path d="M129.31 20.6897H124.138V25.8621H129.31V20.6897Z" fill="#282C38"/>
<path d="M134.483 20.6897H129.31V25.8621H134.483V20.6897Z" fill="#282C38"/>
<path d="M139.655 20.6897H134.483V25.8621H139.655V20.6897Z" fill="#282C38"/>
<path d="M150 20.6897H144.828V25.8621H150V20.6897Z" fill="#282C38"/>
<path d="M5.17241 25.8621H0V31.0345H5.17241V25.8621Z" fill="#282C38"/>
<path d="M36.2069 25.8621H31.0345V31.0345H36.2069V25.8621Z" fill="#282C38"/>
<path d="M46.5517 25.8621H41.3793V31.0345H46.5517V25.8621Z" fill="#282C38"/>
<path d="M51.7241 25.8621H46.5517V31.0345H51.7241V25.8621Z" fill="#282C38"/>
<path d="M56.8965 25.8621H51.7241V31.0345H56.8965V25.8621Z" fill="#282C38"/>
<path d="M62.069 25.8621H56.8965V31.0345H62.069V25.8621Z" fill="#282C38"/>
<path d="M67.2414 25.8621H62.069V31.0345H67.2414V25.8621Z" fill="#282C38"/>
<path d="M72.4138 25.8621H67.2414V31.0345H72.4138V25.8621Z" fill="#282C38"/>
<path d="M82.7586 25.8621H77.5862V31.0345H82.7586V25.8621Z" fill="#282C38"/>
<path d="M93.1035 25.8621H87.931V31.0345H93.1035V25.8621Z" fill="#282C38"/>
<path d="M98.2759 25.8621H93.1035V31.0345H98.2759V25.8621Z" fill="#282C38"/>
<path d="M118.966 25.8621H113.793V31.0345H118.966V25.8621Z" fill="#282C38"/>
<path d="M150 25.8621H144.828V31.0345H150V25.8621Z" fill="#282C38"/>
<path d="M5.17241 31.0345H0V36.2069H5.17241V31.0345Z" fill="#282C38"/>
<path d="M10.3448 31.0345H5.17241V36.2069H10.3448V31.0345Z" fill="#282C38"/>
<path d="M15.5172 31.0345H10.3448V36.2069H15.5172V31.0345Z" fill="#282C38"/>
<path d="M20.6897 31.0345H15.5172V36.2069H20.6897V31.0345Z" fill="#282C38"/>
<path d="M25.8621 31.0345H20.6897V36.2069H25.8621V31.0345Z" fill="#282C38"/>
<path d="M31.0345 31.0345H25.8621V36.2069H31.0345V31.0345Z" fill="#282C38"/>
<path d="M36.2069 31.0345H31.0345V36.2069H36.2069V31.0345Z" fill="#282C38"/>
<path d="M46.5517 31.0345H41.3793V36.2069H46.5517V31.0345Z" fill="#282C38"/>
<path d="M56.8965 31.0345H51.7241V36.2069H56.8965V31.0345Z" fill="#282C38"/>
<path d="M67.2414 31.0345H62.069V36.2069H67.2414V31.0345Z" fill="#282C38"/>
<path d="M77.5862 31.0345H72.4138V36.2069H77.5862V31.0345Z" fill="#282C38"/>
<path d="M87.931 31.0345H82.7586V36.2069H87.931V31.0345Z" fill="#282C38"/>
<path d="M98.2759 31.0345H93.1035V36.2069H98.2759V31.0345Z" fill="#282C38"/>
<path d="M108.621 31.0345H103.448V36.2069H108.621V31.0345Z" fill="#282C38"/>
<path d="M118.966 31.0345H113.793V36.2069H118.966V31.0345Z" fill="#282C38"/>
<path d="M124.138 31.0345H118.966V36.2069H124.138V31.0345Z" fill="#282C38"/>
<path d="M129.31 31.0345H124.138V36.2069H129.31V31.0345Z" fill="#282C38"/>
<path d="M134.483 31.0345H129.31V36.2069H134.483V31.0345Z" fill="#282C38"/>
<path d="M139.655 31.0345H134.483V36.2069H139.655V31.0345Z" fill="#282C38"/>
<path d="M144.828 31.0345H139.655V36.2069H144.828V31.0345Z" fill="#282C38"/>
<path d="M150 31.0345H144.828V36.2069H150V31.0345Z" fill="#282C38"/>
<path d="M51.7241 36.2069H46.5517V41.3793H51.7241V36.2069Z" fill="#282C38"/>
<path d="M56.8965 36.2069H51.7241V41.3793H56.8965V36.2069Z" fill="#282C38"/>
<path d="M62.069 36.2069H56.8965V41.3793H62.069V36.2069Z" fill="#282C38"/>
<path d="M67.2414 36.2069H62.069V41.3793H67.2414V36.2069Z" fill="#282C38"/>
<path d="M72.4138 36.2069H67.2414V41.3793H72.4138V36.2069Z" fill="#282C38"/>
<path d="M82.7586 36.2069H77.5862V41.3793H82.7586V36.2069Z" fill="#282C38"/>
<path d="M93.1035 36.2069H87.931V41.3793H93.1035V36.2069Z" fill="#282C38"/>
<path d="M108.621 36.2069H103.448V41.3793H108.621V36.2069Z" fill="#282C38"/>
<path d="M31.0345 41.3793H25.8621V46.5517H31.0345V41.3793Z" fill="#282C38"/>
<path d="M36.2069 41.3793H31.0345V46.5517H36.2069V41.3793Z" fill="#282C38"/>
<path d="M46.5517 41.3793H41.3793V46.5517H46.5517V41.3793Z" fill="#282C38"/>
<path d="M56.8965 41.3793H51.7241V46.5517H56.8965V41.3793Z" fill="#282C38"/>
<path d="M62.069 41.3793H56.8965V46.5517H62.069V41.3793Z" fill="#282C38"/>
<path d="M67.2414 41.3793H62.069V46.5517H67.2414V41.3793Z" fill="#282C38"/>
<path d="M82.7586 41.3793H77.5862V46.5517H82.7586V41.3793Z" fill="#282C38"/>
<path d="M87.931 41.3793H82.7586V46.5517H87.931V41.3793Z" fill="#282C38"/>
<path d="M93.1035 41.3793H87.931V46.5517H93.1035V41.3793Z" fill="#282C38"/>
<path d="M98.2759 41.3793H93.1035V46.5517H98.2759V41.3793Z" fill="#282C38"/>
<path d="M103.448 41.3793H98.2759V46.5517H103.448V41.3793Z" fill="#282C38"/>
<path d="M108.621 41.3793H103.448V46.5517H108.621V41.3793Z" fill="#282C38"/>
<path d="M113.793 41.3793H108.621V46.5517H113.793V41.3793Z" fill="#282C38"/>
<path d="M124.138 41.3793H118.966V46.5517H124.138V41.3793Z" fill="#282C38"/>
<path d="M134.483 41.3793H129.31V46.5517H134.483V41.3793Z" fill="#282C38"/>
<path d="M150 41.3793H144.828V46.5517H150V41.3793Z" fill="#282C38"/>
<path d="M15.5172 46.5517H10.3448V51.7241H15.5172V46.5517Z" fill="#282C38"/>
<path d="M20.6897 46.5517H15.5172V51.7241H20.6897V46.5517Z" fill="#282C38"/>
<path d="M25.8621 46.5517H20.6897V51.7241H25.8621V46.5517Z" fill="#282C38"/>
<path d="M41.3793 46.5517H36.2069V51.7241H41.3793V46.5517Z" fill="#282C38"/>
<path d="M67.2414 46.5517H62.069V51.7241H67.2414V46.5517Z" fill="#282C38"/>
<path d="M77.5862 46.5517H72.4138V51.7241H77.5862V46.5517Z" fill="#282C38"/>
<path d="M103.448 46.5517H98.2759V51.7241H103.448V46.5517Z" fill="#282C38"/>
<path d="M108.621 46.5517H103.448V51.7241H108.621V46.5517Z" fill="#282C38"/>
<path d="M113.793 46.5517H108.621V51.7241H113.793V46.5517Z" fill="#282C38"/>
<path d="M118.966 46.5517H113.793V51.7241H118.966V46.5517Z" fill="#282C38"/>
<path d="M129.31 46.5517H124.138V51.7241H129.31V46.5517Z" fill="#282C38"/>
<path d="M134.483 46.5517H129.31V51.7241H134.483V46.5517Z" fill="#282C38"/>
<path d="M139.655 46.5517H134.483V51.7241H139.655V46.5517Z" fill="#282C38"/>
<path d="M150 46.5517H144.828V51.7241H150V46.5517Z" fill="#282C38"/>
<path d="M5.17241 51.7241H0V56.8965H5.17241V51.7241Z" fill="#282C38"/>
<path d="M20.6897 51.7241H15.5172V56.8965H20.6897V51.7241Z" fill="#282C38"/>
<path d="M25.8621 51.7241H20.6897V56.8965H25.8621V51.7241Z" fill="#282C38"/>
<path d="M36.2069 51.7241H31.0345V56.8965H36.2069V51.7241Z" fill="#282C38"/>
<path d="M46.5517 51.7241H41.3793V56.8965H46.5517V51.7241Z" fill="#282C38"/>
<path d="M56.8965 51.7241H51.7241V56.8965H56.8965V51.7241Z" fill="#282C38"/>
<path d="M67.2414 51.7241H62.069V56.8965H67.2414V51.7241Z" fill="#282C38"/>
<path d="M72.4138 51.7241H67.2414V56.8965H72.4138V51.7241Z" fill="#282C38"/>
<path d="M77.5862 51.7241H72.4138V56.8965H77.5862V51.7241Z" fill="#282C38"/>
<path d="M82.7586 51.7241H77.5862V56.8965H82.7586V51.7241Z" fill="#282C38"/>
<path d="M93.1035 51.7241H87.931V56.8965H93.1035V51.7241Z" fill="#282C38"/>
<path d="M124.138 51.7241H118.966V56.8965H124.138V51.7241Z" fill="#282C38"/>
<path d="M144.828 51.7241H139.655V56.8965H144.828V51.7241Z" fill="#282C38"/>
<path d="M5.17241 56.8965H0V62.069H5.17241V56.8965Z" fill="#282C38"/>
<path d="M25.8621 56.8965H20.6897V62.069H25.8621V56.8965Z" fill="#282C38"/>
<path d="M31.0345 56.8965H25.8621V62.069H31.0345V56.8965Z" fill="#282C38"/>
<path d="M41.3793 56.8965H36.2069V62.069H41.3793V56.8965Z" fill="#282C38"/>
<path d="M62.069 56.8965H56.8965V62.069H62.069V56.8965Z" fill="#282C38"/>
<path d="M67.2414 56.8965H62.069V62.069H67.2414V56.8965Z" fill="#282C38"/>
<path d="M77.5862 56.8965H72.4138V62.069H77.5862V56.8965Z" fill="#282C38"/>
<path d="M87.931 56.8965H82.7586V62.069H87.931V56.8965Z" fill="#282C38"/>
<path d="M98.2759 56.8965H93.1035V62.069H98.2759V56.8965Z" fill="#282C38"/>
<path d="M108.621 56.8965H103.448V62.069H108.621V56.8965Z" fill="#282C38"/>
<path d="M118.966 56.8965H113.793V62.069H118.966V56.8965Z" fill="#282C38"/>
<path d="M124.138 56.8965H118.966V62.069H124.138V56.8965Z" fill="#282C38"/>
<path d="M129.31 56.8965H124.138V62.069H129.31V56.8965Z" fill="#282C38"/>
<path d="M134.483 56.8965H129.31V62.069H134.483V56.8965Z" fill="#282C38"/>
<path d="M139.655 56.8965H134.483V62.069H139.655V56.8965Z" fill="#282C38"/>
<path d="M20.6897 62.069H15.5172V67.2414H20.6897V62.069Z" fill="#282C38"/>
<path d="M36.2069 62.069H31.0345V67.2414H36.2069V62.069Z" fill="#282C38"/>
<path d="M46.5517 62.069H41.3793V67.2414H46.5517V62.069Z" fill="#282C38"/>
<path d="M56.8965 62.069H51.7241V67.2414H56.8965V62.069Z" fill="#282C38"/>
<path d="M67.2414 62.069H62.069V67.2414H67.2414V62.069Z" fill="#282C38"/>
<path d="M72.4138 62.069H67.2414V67.2414H72.4138V62.069Z" fill="#282C38"/>
<path d="M82.7586 62.069H77.5862V67.2414H82.7586V62.069Z" fill="#282C38"/>
<path d="M87.931 62.069H82.7586V67.2414H87.931V62.069Z" fill="#282C38"/>
<path d="M98.2759 62.069H93.1035V67.2414H98.2759V62.069Z" fill="#282C38"/>
<path d="M103.448 62.069H98.2759V67.2414H103.448V62.069Z" fill="#282C38"/>
<path d="M108.621 62.069H103.448V67.2414H108.621V62.069Z" fill="#282C38"/>
<path d="M118.966 62.069H113.793V67.2414H118.966V62.069Z" fill="#282C38"/>
<path d="M124.138 62.069H118.966V67.2414H124.138V62.069Z" fill="#282C38"/>
<path d="M150 62.069H144.828V67.2414H150V62.069Z" fill="#282C38"/>
<path d="M20.6897 67.2414H15.5172V72.4138H20.6897V67.2414Z" fill="#282C38"/>
<path d="M41.3793 67.2414H36.2069V72.4138H41.3793V67.2414Z" fill="#282C38"/>
<path d="M51.7241 67.2414H46.5517V72.4138H51.7241V67.2414Z" fill="#282C38"/>
<path d="M56.8965 67.2414H51.7241V72.4138H56.8965V67.2414Z" fill="#282C38"/>
<path d="M62.069 67.2414H56.8965V72.4138H62.069V67.2414Z" fill="#282C38"/>
<path d="M72.4138 67.2414H67.2414V72.4138H72.4138V67.2414Z" fill="#282C38"/>
<path d="M77.5862 67.2414H72.4138V72.4138H77.5862V67.2414Z" fill="#282C38"/>
<path d="M87.931 67.2414H82.7586V72.4138H87.931V67.2414Z" fill="#282C38"/>
<path d="M93.1035 67.2414H87.931V72.4138H93.1035V67.2414Z" fill="#282C38"/>
<path d="M134.483 67.2414H129.31V72.4138H134.483V67.2414Z" fill="#282C38"/>
<path d="M139.655 67.2414H134.483V72.4138H139.655V67.2414Z" fill="#282C38"/>
<path d="M144.828 67.2414H139.655V72.4138H144.828V67.2414Z" fill="#282C38"/>
<path d="M150 67.2414H144.828V72.4138H150V67.2414Z" fill="#282C38"/>
<path d="M25.8621 72.4138H20.6897V77.5862H25.8621V72.4138Z" fill="#282C38"/>
<path d="M36.2069 72.4138H31.0345V77.5862H36.2069V72.4138Z" fill="#282C38"/>
<path d="M46.5517 72.4138H41.3793V77.5862H46.5517V72.4138Z" fill="#282C38"/>
<path d="M56.8965 72.4138H51.7241V77.5862H56.8965V72.4138Z" fill="#282C38"/>
<path d="M67.2414 72.4138H62.069V77.5862H67.2414V72.4138Z" fill="#282C38"/>
<path d="M72.4138 72.4138H67.2414V77.5862H72.4138V72.4138Z" fill="#282C38"/>
<path d="M77.5862 72.4138H72.4138V77.5862H77.5862V72.4138Z" fill="#282C38"/>
<path d="M93.1035 72.4138H87.931V77.5862H93.1035V72.4138Z" fill="#282C38"/>
<path d="M98.2759 72.4138H93.1035V77.5862H98.2759V72.4138Z" fill="#282C38"/>
<path d="M103.448 72.4138H98.2759V77.5862H103.448V72.4138Z" fill="#282C38"/>
<path d="M113.793 72.4138H108.621V77.5862H113.793V72.4138Z" fill="#282C38"/>
<path d="M124.138 72.4138H118.966V77.5862H124.138V72.4138Z" fill="#282C38"/>
<path d="M139.655 72.4138H134.483V77.5862H139.655V72.4138Z" fill="#282C38"/>
<path d="M5.17241 77.5862H0V82.7586H5.17241V77.5862Z" fill="#282C38"/>
<path d="M10.3448 77.5862H5.17241V82.7586H10.3448V77.5862Z" fill="#282C38"/>
<path d="M20.6897 77.5862H15.5172V82.7586H20.6897V77.5862Z" fill="#282C38"/>
<path d="M25.8621 77.5862H20.6897V82.7586H25.8621V77.5862Z" fill="#282C38"/>
<path d="M31.0345 77.5862H25.8621V82.7586H31.0345V77.5862Z" fill="#282C38"/>
<path d="M41.3793 77.5862H36.2069V82.7586H41.3793V77.5862Z" fill="#282C38"/>
<path d="M67.2414 77.5862H62.069V82.7586H67.2414V77.5862Z" fill="#282C38"/>
<path d="M82.7586 77.5862H77.5862V82.7586H82.7586V77.5862Z" fill="#282C38"/>
<path d="M103.448 77.5862H98.2759V82.7586H103.448V77.5862Z" fill="#282C38"/>
<path d="M10.3448 82.7586H5.17241V87.931H10.3448V82.7586Z" fill="#282C38"/>
<path d="M15.5172 82.7586H10.3448V87.931H15.5172V82.7586Z" fill="#282C38"/>
<path d="M20.6897 82.7586H15.5172V87.931H20.6897V82.7586Z" fill="#282C38"/>
<path d="M25.8621 82.7586H20.6897V87.931H25.8621V82.7586Z" fill="#282C38"/>
<path d="M31.0345 82.7586H25.8621V87.931H31.0345V82.7586Z" fill="#282C38"/>
<path d="M36.2069 82.7586H31.0345V87.931H36.2069V82.7586Z" fill="#282C38"/>
<path d="M41.3793 82.7586H36.2069V87.931H41.3793V82.7586Z" fill="#282C38"/>
<path d="M46.5517 82.7586H41.3793V87.931H46.5517V82.7586Z" fill="#282C38"/>
<path d="M51.7241 82.7586H46.5517V87.931H51.7241V82.7586Z" fill="#282C38"/>
<path d="M56.8965 82.7586H51.7241V87.931H56.8965V82.7586Z" fill="#282C38"/>
<path d="M67.2414 82.7586H62.069V87.931H67.2414V82.7586Z" fill="#282C38"/>
<path d="M82.7586 82.7586H77.5862V87.931H82.7586V82.7586Z" fill="#282C38"/>
<path d="M93.1035 82.7586H87.931V87.931H93.1035V82.7586Z" fill="#282C38"/>
<path d="M108.621 82.7586H103.448V87.931H108.621V82.7586Z" fill="#282C38"/>
<path d="M113.793 82.7586H108.621V87.931H113.793V82.7586Z" fill="#282C38"/>
<path d="M144.828 82.7586H139.655V87.931H144.828V82.7586Z" fill="#282C38"/>
<path d="M15.5172 87.931H10.3448V93.1035H15.5172V87.931Z" fill="#282C38"/>
<path d="M25.8621 87.931H20.6897V93.1035H25.8621V87.931Z" fill="#282C38"/>
<path d="M31.0345 87.931H25.8621V93.1035H31.0345V87.931Z" fill="#282C38"/>
<path d="M41.3793 87.931H36.2069V93.1035H41.3793V87.931Z" fill="#282C38"/>
<path d="M67.2414 87.931H62.069V93.1035H67.2414V87.931Z" fill="#282C38"/>
<path d="M82.7586 87.931H77.5862V93.1035H82.7586V87.931Z" fill="#282C38"/>
<path d="M87.931 87.931H82.7586V93.1035H87.931V87.931Z" fill="#282C38"/>
<path d="M93.1035 87.931H87.931V93.1035H93.1035V87.931Z" fill="#282C38"/>
<path d="M103.448 87.931H98.2759V93.1035H103.448V87.931Z" fill="#282C38"/>
<path d="M113.793 87.931H108.621V93.1035H113.793V87.931Z" fill="#282C38"/>
<path d="M129.31 87.931H124.138V93.1035H129.31V87.931Z" fill="#282C38"/>
<path d="M139.655 87.931H134.483V93.1035H139.655V87.931Z" fill="#282C38"/>
<path d="M144.828 87.931H139.655V93.1035H144.828V87.931Z" fill="#282C38"/>
<path d="M150 87.931H144.828V93.1035H150V87.931Z" fill="#282C38"/>
<path d="M5.17241 93.1035H0V98.2759H5.17241V93.1035Z" fill="#282C38"/>
<path d="M20.6897 93.1035H15.5172V98.2759H20.6897V93.1035Z" fill="#282C38"/>
<path d="M25.8621 93.1035H20.6897V98.2759H25.8621V93.1035Z" fill="#282C38"/>
<path d="M31.0345 93.1035H25.8621V98.2759H31.0345V93.1035Z" fill="#282C38"/>
<path d="M36.2069 93.1035H31.0345V98.2759H36.2069V93.1035Z" fill="#282C38"/>
<path d="M41.3793 93.1035H36.2069V98.2759H41.3793V93.1035Z" fill="#282C38"/>
<path d="M62.069 93.1035H56.8965V98.2759H62.069V93.1035Z" fill="#282C38"/>
<path d="M67.2414 93.1035H62.069V98.2759H67.2414V93.1035Z" fill="#282C38"/>
<path d="M82.7586 93.1035H77.5862V98.2759H82.7586V93.1035Z" fill="#282C38"/>
<path d="M98.2759 93.1035H93.1035V98.2759H98.2759V93.1035Z" fill="#282C38"/>
<path d="M124.138 93.1035H118.966V98.2759H124.138V93.1035Z" fill="#282C38"/>
<path d="M134.483 93.1035H129.31V98.2759H134.483V93.1035Z" fill="#282C38"/>
<path d="M139.655 93.1035H134.483V98.2759H139.655V93.1035Z" fill="#282C38"/>
<path d="M144.828 93.1035H139.655V98.2759H144.828V93.1035Z" fill="#282C38"/>
<path d="M5.17241 98.2759H0V103.448H5.17241V98.2759Z" fill="#282C38"/>
<path d="M15.5172 98.2759H10.3448V103.448H15.5172V98.2759Z" fill="#282C38"/>
<path d="M31.0345 98.2759H25.8621V103.448H31.0345V98.2759Z" fill="#282C38"/>
<path d="M46.5517 98.2759H41.3793V103.448H46.5517V98.2759Z" fill="#282C38"/>
<path d="M56.8965 98.2759H51.7241V103.448H56.8965V98.2759Z" fill="#282C38"/>
<path d="M62.069 98.2759H56.8965V103.448H62.069V98.2759Z" fill="#282C38"/>
<path d="M72.4138 98.2759H67.2414V103.448H72.4138V98.2759Z" fill="#282C38"/>
<path d="M87.931 98.2759H82.7586V103.448H87.931V98.2759Z" fill="#282C38"/>
<path d="M103.448 98.2759H98.2759V103.448H103.448V98.2759Z" fill="#282C38"/>
<path d="M113.793 98.2759H108.621V103.448H113.793V98.2759Z" fill="#282C38"/>
<path d="M134.483 98.2759H129.31V103.448H134.483V98.2759Z" fill="#282C38"/>
<path d="M144.828 98.2759H139.655V103.448H144.828V98.2759Z" fill="#282C38"/>
<path d="M15.5172 103.448H10.3448V108.621H15.5172V103.448Z" fill="#282C38"/>
<path d="M25.8621 103.448H20.6897V108.621H25.8621V103.448Z" fill="#282C38"/>
<path d="M36.2069 103.448H31.0345V108.621H36.2069V103.448Z" fill="#282C38"/>
<path d="M41.3793 103.448H36.2069V108.621H41.3793V103.448Z" fill="#282C38"/>
<path d="M51.7241 103.448H46.5517V108.621H51.7241V103.448Z" fill="#282C38"/>
<path d="M62.069 103.448H56.8965V108.621H62.069V103.448Z" fill="#282C38"/>
<path d="M67.2414 103.448H62.069V108.621H67.2414V103.448Z" fill="#282C38"/>
<path d="M72.4138 103.448H67.2414V108.621H72.4138V103.448Z" fill="#282C38"/>
<path d="M103.448 103.448H98.2759V108.621H103.448V103.448Z" fill="#282C38"/>
<path d="M108.621 103.448H103.448V108.621H108.621V103.448Z" fill="#282C38"/>
<path d="M113.793 103.448H108.621V108.621H113.793V103.448Z" fill="#282C38"/>
<path d="M118.966 103.448H113.793V108.621H118.966V103.448Z" fill="#282C38"/>
<path d="M124.138 103.448H118.966V108.621H124.138V103.448Z" fill="#282C38"/>
<path d="M129.31 103.448H124.138V108.621H129.31V103.448Z" fill="#282C38"/>
<path d="M144.828 103.448H139.655V108.621H144.828V103.448Z" fill="#282C38"/>
<path d="M150 103.448H144.828V108.621H150V103.448Z" fill="#282C38"/>
<path d="M46.5517 108.621H41.3793V113.793H46.5517V108.621Z" fill="#282C38"/>
<path d="M51.7241 108.621H46.5517V113.793H51.7241V108.621Z" fill="#282C38"/>
<path d="M67.2414 108.621H62.069V113.793H67.2414V108.621Z" fill="#282C38"/>
<path d="M72.4138 108.621H67.2414V113.793H72.4138V108.621Z" fill="#282C38"/>
<path d="M77.5862 108.621H72.4138V113.793H77.5862V108.621Z" fill="#282C38"/>
<path d="M82.7586 108.621H77.5862V113.793H82.7586V108.621Z" fill="#282C38"/>
<path d="M87.931 108.621H82.7586V113.793H87.931V108.621Z" fill="#282C38"/>
<path d="M108.621 108.621H103.448V113.793H108.621V108.621Z" fill="#282C38"/>
<path d="M129.31 108.621H124.138V113.793H129.31V108.621Z" fill="#282C38"/>
<path d="M139.655 108.621H134.483V113.793H139.655V108.621Z" fill="#282C38"/>
<path d="M5.17241 113.793H0V118.966H5.17241V113.793Z" fill="#282C38"/>
<path d="M10.3448 113.793H5.17241V118.966H10.3448V113.793Z" fill="#282C38"/>
<path d="M15.5172 113.793H10.3448V118.966H15.5172V113.793Z" fill="#282C38"/>
<path d="M20.6897 113.793H15.5172V118.966H20.6897V113.793Z" fill="#282C38"/>
<path d="M25.8621 113.793H20.6897V118.966H25.8621V113.793Z" fill="#282C38"/>
<path d="M31.0345 113.793H25.8621V118.966H31.0345V113.793Z" fill="#282C38"/>
<path d="M36.2069 113.793H31.0345V118.966H36.2069V113.793Z" fill="#282C38"/>
<path d="M51.7241 113.793H46.5517V118.966H51.7241V113.793Z" fill="#282C38"/>
<path d="M56.8965 113.793H51.7241V118.966H56.8965V113.793Z" fill="#282C38"/>
<path d="M67.2414 113.793H62.069V118.966H67.2414V113.793Z" fill="#282C38"/>
<path d="M82.7586 113.793H77.5862V118.966H82.7586V113.793Z" fill="#282C38"/>
<path d="M93.1035 113.793H87.931V118.966H93.1035V113.793Z" fill="#282C38"/>
<path d="M98.2759 113.793H93.1035V118.966H98.2759V113.793Z" fill="#282C38"/>
<path d="M108.621 113.793H103.448V118.966H108.621V113.793Z" fill="#282C38"/>
<path d="M118.966 113.793H113.793V118.966H118.966V113.793Z" fill="#282C38"/>
<path d="M129.31 113.793H124.138V118.966H129.31V113.793Z" fill="#282C38"/>
<path d="M134.483 113.793H129.31V118.966H134.483V113.793Z" fill="#282C38"/>
<path d="M5.17241 118.966H0V124.138H5.17241V118.966Z" fill="#282C38"/>
<path d="M36.2069 118.966H31.0345V124.138H36.2069V118.966Z" fill="#282C38"/>
<path d="M46.5517 118.966H41.3793V124.138H46.5517V118.966Z" fill="#282C38"/>
<path d="M62.069 118.966H56.8965V124.138H62.069V118.966Z" fill="#282C38"/>
<path d="M72.4138 118.966H67.2414V124.138H72.4138V118.966Z" fill="#282C38"/>
<path d="M87.931 118.966H82.7586V124.138H87.931V118.966Z" fill="#282C38"/>
<path d="M93.1035 118.966H87.931V124.138H93.1035V118.966Z" fill="#282C38"/>
<path d="M98.2759 118.966H93.1035V124.138H98.2759V118.966Z" fill="#282C38"/>
<path d="M108.621 118.966H103.448V124.138H108.621V118.966Z" fill="#282C38"/>
<path d="M129.31 118.966H124.138V124.138H129.31V118.966Z" fill="#282C38"/>
<path d="M150 118.966H144.828V124.138H150V118.966Z" fill="#282C38"/>
<path d="M5.17241 124.138H0V129.31H5.17241V124.138Z" fill="#282C38"/>
<path d="M15.5172 124.138H10.3448V129.31H15.5172V124.138Z" fill="#282C38"/>
<path d="M20.6897 124.138H15.5172V129.31H20.6897V124.138Z" fill="#282C38"/>
<path d="M25.8621 124.138H20.6897V129.31H25.8621V124.138Z" fill="#282C38"/>
<path d="M36.2069 124.138H31.0345V129.31H36.2069V124.138Z" fill="#282C38"/>
<path d="M62.069 124.138H56.8965V129.31H62.069V124.138Z" fill="#282C38"/>
<path d="M108.621 124.138H103.448V129.31H108.621V124.138Z" fill="#282C38"/>
<path d="M113.793 124.138H108.621V129.31H113.793V124.138Z" fill="#282C38"/>
<path d="M118.966 124.138H113.793V129.31H118.966V124.138Z" fill="#282C38"/>
<path d="M124.138 124.138H118.966V129.31H124.138V124.138Z" fill="#282C38"/>
<path d="M129.31 124.138H124.138V129.31H129.31V124.138Z" fill="#282C38"/>
<path d="M134.483 124.138H129.31V129.31H134.483V124.138Z" fill="#282C38"/>
<path d="M139.655 124.138H134.483V129.31H139.655V124.138Z" fill="#282C38"/>
<path d="M144.828 124.138H139.655V129.31H144.828V124.138Z" fill="#282C38"/>
<path d="M150 124.138H144.828V129.31H150V124.138Z" fill="#282C38"/>
<path d="M5.17241 129.31H0V134.483H5.17241V129.31Z" fill="#282C38"/>
<path d="M15.5172 129.31H10.3448V134.483H15.5172V129.31Z" fill="#282C38"/>
<path d="M20.6897 129.31H15.5172V134.483H20.6897V129.31Z" fill="#282C38"/>
<path d="M25.8621 129.31H20.6897V134.483H25.8621V129.31Z" fill="#282C38"/>
<path d="M36.2069 129.31H31.0345V134.483H36.2069V129.31Z" fill="#282C38"/>
<path d="M51.7241 129.31H46.5517V134.483H51.7241V129.31Z" fill="#282C38"/>
<path d="M56.8965 129.31H51.7241V134.483H56.8965V129.31Z" fill="#282C38"/>
<path d="M67.2414 129.31H62.069V134.483H67.2414V129.31Z" fill="#282C38"/>
<path d="M77.5862 129.31H72.4138V134.483H77.5862V129.31Z" fill="#282C38"/>
<path d="M82.7586 129.31H77.5862V134.483H82.7586V129.31Z" fill="#282C38"/>
<path d="M93.1035 129.31H87.931V134.483H93.1035V129.31Z" fill="#282C38"/>
<path d="M124.138 129.31H118.966V134.483H124.138V129.31Z" fill="#282C38"/>
<path d="M134.483 129.31H129.31V134.483H134.483V129.31Z" fill="#282C38"/>
<path d="M139.655 129.31H134.483V134.483H139.655V129.31Z" fill="#282C38"/>
<path d="M5.17241 134.483H0V139.655H5.17241V134.483Z" fill="#282C38"/>
<path d="M15.5172 134.483H10.3448V139.655H15.5172V134.483Z" fill="#282C38"/>
<path d="M20.6897 134.483H15.5172V139.655H20.6897V134.483Z" fill="#282C38"/>
<path d="M25.8621 134.483H20.6897V139.655H25.8621V134.483Z" fill="#282C38"/>
<path d="M36.2069 134.483H31.0345V139.655H36.2069V134.483Z" fill="#282C38"/>
<path d="M56.8965 134.483H51.7241V139.655H56.8965V134.483Z" fill="#282C38"/>
<path d="M62.069 134.483H56.8965V139.655H62.069V134.483Z" fill="#282C38"/>
<path d="M77.5862 134.483H72.4138V139.655H77.5862V134.483Z" fill="#282C38"/>
<path d="M108.621 134.483H103.448V139.655H108.621V134.483Z" fill="#282C38"/>
<path d="M113.793 134.483H108.621V139.655H113.793V134.483Z" fill="#282C38"/>
<path d="M124.138 134.483H118.966V139.655H124.138V134.483Z" fill="#282C38"/>
<path d="M134.483 134.483H129.31V139.655H134.483V134.483Z" fill="#282C38"/>
<path d="M139.655 134.483H134.483V139.655H139.655V134.483Z" fill="#282C38"/>
<path d="M5.17241 139.655H0V144.828H5.17241V139.655Z" fill="#282C38"/>
<path d="M36.2069 139.655H31.0345V144.828H36.2069V139.655Z" fill="#282C38"/>
<path d="M56.8965 139.655H51.7241V144.828H56.8965V139.655Z" fill="#282C38"/>
<path d="M62.069 139.655H56.8965V144.828H62.069V139.655Z" fill="#282C38"/>
<path d="M67.2414 139.655H62.069V144.828H67.2414V139.655Z" fill="#282C38"/>
<path d="M77.5862 139.655H72.4138V144.828H77.5862V139.655Z" fill="#282C38"/>
<path d="M82.7586 139.655H77.5862V144.828H82.7586V139.655Z" fill="#282C38"/>
<path d="M87.931 139.655H82.7586V144.828H87.931V139.655Z" fill="#282C38"/>
<path d="M98.2759 139.655H93.1035V144.828H98.2759V139.655Z" fill="#282C38"/>
<path d="M103.448 139.655H98.2759V144.828H103.448V139.655Z" fill="#282C38"/>
<path d="M113.793 139.655H108.621V144.828H113.793V139.655Z" fill="#282C38"/>
<path d="M118.966 139.655H113.793V144.828H118.966V139.655Z" fill="#282C38"/>
<path d="M129.31 139.655H124.138V144.828H129.31V139.655Z" fill="#282C38"/>
<path d="M134.483 139.655H129.31V144.828H134.483V139.655Z" fill="#282C38"/>
<path d="M144.828 139.655H139.655V144.828H144.828V139.655Z" fill="#282C38"/>
<path d="M150 139.655H144.828V144.828H150V139.655Z" fill="#282C38"/>
<path d="M5.17241 144.828H0V150H5.17241V144.828Z" fill="#282C38"/>
<path d="M10.3448 144.828H5.17241V150H10.3448V144.828Z" fill="#282C38"/>
<path d="M15.5172 144.828H10.3448V150H15.5172V144.828Z" fill="#282C38"/>
<path d="M20.6897 144.828H15.5172V150H20.6897V144.828Z" fill="#282C38"/>
<path d="M25.8621 144.828H20.6897V150H25.8621V144.828Z" fill="#282C38"/>
<path d="M31.0345 144.828H25.8621V150H31.0345V144.828Z" fill="#282C38"/>
<path d="M36.2069 144.828H31.0345V150H36.2069V144.828Z" fill="#282C38"/>
<path d="M51.7241 144.828H46.5517V150H51.7241V144.828Z" fill="#282C38"/>
<path d="M67.2414 144.828H62.069V150H67.2414V144.828Z" fill="#282C38"/>
<path d="M77.5862 144.828H72.4138V150H77.5862V144.828Z" fill="#282C38"/>
<path d="M93.1035 144.828H87.931V150H93.1035V144.828Z" fill="#282C38"/>
<path d="M98.2759 144.828H93.1035V150H98.2759V144.828Z" fill="#282C38"/>
<path d="M103.448 144.828H98.2759V150H103.448V144.828Z" fill="#282C38"/>
<path d="M113.793 144.828H108.621V150H113.793V144.828Z" fill="#282C38"/>
<path d="M129.31 144.828H124.138V150H129.31V144.828Z" fill="#282C38"/>
<path d="M139.655 144.828H134.483V150H139.655V144.828Z" fill="#282C38"/>
</svg>
